<?xml version="1.0" standalone="no"?>
<!DOCTYPE svg PUBLIC "-//W3C//DTD SVG 20010904//EN"
 "http://www.w3.org/TR/2001/REC-SVG-20010904/DTD/svg10.dtd">
<svg version="1.0" xmlns="http://www.w3.org/2000/svg"
 width="512.000000pt" height="512.000000pt" viewBox="0 0 512.000000 512.000000"
 preserveAspectRatio="xMidYMid meet">

<g transform="translate(0.000000,512.000000) scale(0.100000,-0.100000)"
fill="#000000" stroke="none">
<path d="M4638 4796 c-211 -75 -410 -264 -1008 -961 -351 -409 -1056 -1179
-1520 -1660 -251 -261 -354 -387 -466 -572 l-20 -32 -348 354 c-456 466 -599
589 -791 682 -318 154 -502 47 -481 -280 13 -198 67 -380 183 -615 156 -316
435 -689 783 -1046 237 -243 414 -346 621 -363 94 -7 158 7 264 58 246 118
560 446 1105 1154 223 290 313 401 620 775 408 496 619 754 775 950 76 96 193
240 260 320 320 383 439 572 491 780 39 160 -10 303 -141 402 -104 79 -208 96
-327 54z m-4285 -2383 c29 -16 30 -18 10 -21 -12 -2 -41 6 -65 17 l-43 19 33
1 c18 1 47 -7 65 -16z"/>
</g>
</svg>
